<svg width="38" height="57" viewBox="0 0 38 57" fill="none" xmlns="http://www.w3.org/2000/svg">
<rect width="38" height="57" fill="white"/>
<path d="M0 19C0 8.50659 8.50659 0 19 0C29.4934 0 38 8.50659 38 19C38 29.4934 29.4934 38 19 38C8.50659 38 0 29.4934 0 19Z" fill="#2BE080"/>
<path d="M26.3752 38H11.6248C10.1751 38 9 39.212 9 40.7061V48.203C9 48.3421 9.01022 48.4788 9.03025 48.6124C9.00974 48.8121 9 49.014 9 49.2178C9 53.5151 13.4769 57 18.9999 57C24.5229 57 29 53.5151 29 49.2178C29 49.0139 28.9893 48.8121 28.9697 48.6124C28.9893 48.4789 29 48.3421 29 48.203V40.7062C29 39.2116 27.8236 38 26.3752 38Z" fill="white"/>
</svg>
